<svg width="98" height="90" viewBox="0 0 98 90" fill="none" xmlns="http://www.w3.org/2000/svg">
<path fill-rule="evenodd" clip-rule="evenodd" d="M0 45C0 20.1472 20.1472 0 45 0C69.8528 0 90 20.1472 90 45C90 69.8528 69.8528 90 45 90C20.1472 90 0 69.8528 0 45ZM45 5.5271C23.1997 5.5271 5.5271 23.1997 5.5271 45C5.5271 66.8003 23.1997 84.4729 45 84.4729C66.8003 84.4729 84.4729 66.8003 84.4729 45C84.4729 23.1997 66.8003 5.5271 45 5.5271Z" fill="#040304"/>
<path fill-rule="evenodd" clip-rule="evenodd" d="M49 59C49 45.1929 59.969 34 73.5 34C87.031 34 98 45.1929 98 59C98 72.8071 87.031 84 73.5 84C59.969 84 49 72.8071 49 59Z" fill="#040304"/>
</svg>
